<svg width="100" height="48" viewBox="0 0 100 48" fill="none" xmlns="http://www.w3.org/2000/svg">
<path d="M4.52749 24.3354C4.31955 24.3354 4.21558 24.2314 4.21558 24.0235V3.64541C4.21558 3.43747 4.31955 3.3335 4.52749 3.3335H27.3441C33.9037 3.3335 38.6957 4.22196 41.7392 5.98945C44.7827 7.75694 46.3044 10.3656 46.3044 13.7872C46.3044 17.256 44.7827 19.8741 41.7392 21.6605C38.6957 23.4375 33.9037 24.3354 27.3441 24.3354H4.52749ZM10.0473 19.3543H27.2118C35.3025 19.3543 39.3479 17.5017 39.3479 13.7872C39.3479 10.1293 35.2742 8.30514 27.1267 8.30514H10.0473V19.3543Z" fill="black"/>
<path d="M48.7523 24.3354C48.5444 24.3354 48.4404 24.2314 48.4404 24.0235V3.64541C48.4404 3.43747 48.5444 3.3335 48.7523 3.3335H91.9376V8.30514H54.5463V11.4053H91.9281V16.0934H54.5463V19.307H91.9281V24.3354H48.7523Z" fill="black"/>
<path d="M4.44235 44.411C4.28167 44.411 4.20605 44.3353 4.20605 44.1747V28.7966C4.20605 28.6359 4.28167 28.5603 4.44235 28.5603H21.0775V31.755H7.8828V35.1198H21.087V38.3146H7.8828V44.1747C7.8828 44.3353 7.80719 44.411 7.64651 44.411H4.44235Z" fill="black"/>
<path d="M40.4916 44.7323H36.0965C32.0511 44.7323 28.8659 43.9856 26.5596 42.5017C24.2534 41.0178 23.0908 38.9951 23.0908 36.4526C23.0908 33.9195 24.2439 31.9157 26.5596 30.4412C28.8659 28.9667 32.0511 28.2295 36.0965 28.2295H40.4916C44.5086 28.2295 47.6749 28.9667 49.9717 30.4507C52.278 31.9346 53.4216 33.9289 53.4216 36.4431C53.4216 38.9762 52.2685 40.9894 49.9528 42.4828C47.6466 43.9856 44.4897 44.7323 40.4916 44.7323ZM39.9056 40.8476C42.7978 40.8476 44.9717 40.4507 46.4273 39.6567C47.8829 38.8628 48.6107 37.7947 48.5918 36.4526C48.5918 35.1104 47.8734 34.0518 46.4273 33.2768C44.9812 32.5017 42.8073 32.1142 39.9056 32.1142H36.6258C33.7241 32.1142 31.5407 32.5017 30.0946 33.2768C28.639 34.0518 27.9207 35.1104 27.9207 36.4526C27.9207 37.8136 28.6485 38.8817 30.0946 39.6662C31.5502 40.4507 33.7241 40.8476 36.6258 40.8476H39.9056Z" fill="black"/>
<path d="M72.5429 44.1369C72.5996 44.2125 72.609 44.2692 72.5618 44.3259C72.5145 44.3826 72.4578 44.411 72.3727 44.411H68.2707C68.1383 44.411 68.0344 44.3448 67.9493 44.2219L64.0646 38.6832H58.9796V44.1747C58.9796 44.3353 58.9039 44.411 58.7433 44.411H55.5486C55.3879 44.411 55.3123 44.3353 55.3123 44.1747V28.7966C55.3123 28.6359 55.3879 28.5603 55.5486 28.5603H66.2763C68.2045 28.5603 69.7451 28.9951 70.8794 29.8552C72.0136 30.7248 72.5807 31.9629 72.5807 33.5792C72.5807 34.8268 72.2026 35.8571 71.4465 36.6888C70.6903 37.5206 69.6128 38.0877 68.2329 38.3807L72.5429 44.1369ZM58.9796 35.5074H66.2291C67.0419 35.5074 67.6657 35.3372 68.11 35.0064C68.5448 34.6662 68.7622 34.1936 68.7622 33.5792C68.7622 33.0026 68.5448 32.5584 68.1194 32.2371C67.6941 31.9157 67.0608 31.755 66.2291 31.755H58.9796V35.5074Z" fill="black"/>
<path d="M75.1137 44.411C74.9531 44.411 74.8774 44.3353 74.8774 44.1747V28.7966C74.8774 28.6359 74.9531 28.5603 75.1137 28.5603H79.7924C79.9058 28.5603 79.9814 28.6265 80.0287 28.7493L83.3935 36.3013H83.4975L86.9096 28.7493C86.9852 28.617 87.0797 28.5603 87.212 28.5603H91.6922C91.8529 28.5603 91.9285 28.6359 91.9285 28.7966V44.1747C91.9285 44.3353 91.8529 44.411 91.6922 44.411H88.4975C88.3368 44.411 88.2612 44.3353 88.2612 44.1747V33.7493H88.1572L85.3217 40.1671C85.2461 40.3089 85.161 40.3845 85.0665 40.3845H81.7867C81.6733 40.3845 81.5882 40.3183 81.5315 40.1955L78.6582 33.7588H78.5447V44.1841C78.5447 44.3448 78.4691 44.4204 78.3084 44.4204H75.1137V44.411Z" fill="black"/>
<path d="M94.8027 4.71338H95.7479C95.8802 4.71338 96.0031 4.73228 96.1165 4.77009C96.2205 4.8079 96.315 4.86461 96.3812 4.93077C96.4379 4.98748 96.4757 5.05364 96.5041 5.11981C96.5324 5.19542 96.5513 5.27104 96.5513 5.36555V5.375C96.5513 5.46952 96.5324 5.55459 96.5041 5.62075C96.4757 5.69637 96.4284 5.75308 96.3812 5.80979C96.3245 5.8665 96.2678 5.90431 96.1921 5.94211C96.1165 5.97992 96.0409 5.99882 95.9559 6.01773L96.6364 6.91565H96.3339L95.6912 6.05553H95.6818H95.0579V6.91565H94.8122V4.71338H94.8027ZM95.729 5.83814C95.8141 5.83814 95.8897 5.82869 95.9559 5.80979C96.022 5.79088 96.0882 5.76253 96.1354 5.71527C96.1827 5.67746 96.23 5.6302 96.2583 5.57349C96.2867 5.51678 96.3056 5.45062 96.3056 5.38446V5.375C96.3056 5.24268 96.2583 5.12926 96.1543 5.05364C96.0598 4.97803 95.918 4.94022 95.7385 4.94022H95.0579V5.83814H95.729Z" fill="black"/>
<path d="M95.6442 8.02172C94.4343 8.02172 93.4419 7.02929 93.4419 5.81946C93.4419 4.60963 94.4343 3.61719 95.6442 3.61719C96.854 3.61719 97.8464 4.60963 97.8464 5.81946C97.8464 7.02929 96.8634 8.02172 95.6442 8.02172ZM95.6442 3.87239C94.5761 3.87239 93.7065 4.74195 93.7065 5.81C93.7065 6.87806 94.5761 7.74762 95.6442 7.74762C96.7122 7.74762 97.5818 6.87806 97.5818 5.81C97.5818 4.74195 96.7122 3.87239 95.6442 3.87239Z" fill="black"/>
</svg>
