<svg width="94" height="42" viewBox="0 0 94 42" fill="none" xmlns="http://www.w3.org/2000/svg">
<path d="M0.527669 21.3349C0.319729 21.3349 0.215759 21.2309 0.215759 21.023V0.644917C0.215759 0.436977 0.319729 0.333008 0.527669 0.333008H23.3443C29.9038 0.333008 34.6959 1.22148 37.7394 2.98896C40.7829 4.75645 42.3046 7.36514 42.3046 10.7867C42.3046 14.2555 40.7829 16.8737 37.7394 18.66C34.6959 20.437 29.9038 21.3349 23.3443 21.3349H0.527669ZM6.04752 16.3538H23.212C31.3027 16.3538 35.3481 14.5013 35.3481 10.7867C35.3481 7.12885 31.2744 5.30465 23.1269 5.30465H6.04752V16.3538Z" fill="black"/>
<path d="M44.7525 21.3349C44.5446 21.3349 44.4406 21.2309 44.4406 21.023V0.644917C44.4406 0.436977 44.5446 0.333008 44.7525 0.333008H87.9378V5.30465H50.5465V8.40484H87.9283V13.0929H50.5465V16.3065H87.9283V21.3349H44.7525Z" fill="black"/>
<path d="M0.442533 41.4107C0.281852 41.4107 0.206238 41.3351 0.206238 41.1744V25.7964C0.206238 25.6357 0.281852 25.5601 0.442533 25.5601H17.0777V28.7548H3.88299V32.1196H17.0871V35.3143H3.88299V41.1744C3.88299 41.3351 3.80737 41.4107 3.64669 41.4107H0.442533Z" fill="black"/>
<path d="M36.4916 41.7318H32.0966C28.0512 41.7318 24.8659 40.9851 22.5597 39.5012C20.2535 38.0173 19.0909 35.9946 19.0909 33.4521C19.0909 30.919 20.244 28.9152 22.5597 27.4407C24.8659 25.9662 28.0512 25.229 32.0966 25.229H36.4916C40.5086 25.229 43.675 25.9662 45.9718 27.4502C48.278 28.9341 49.4217 30.9284 49.4217 33.4426C49.4217 35.9757 48.2686 37.9889 45.9529 39.4823C43.6466 40.9851 40.4897 41.7318 36.4916 41.7318ZM35.9056 37.8472C38.7979 37.8472 40.9718 37.4502 42.4274 36.6562C43.8829 35.8623 44.6107 34.7942 44.5918 33.4521C44.5918 32.1099 43.8735 31.0513 42.4274 30.2763C40.9812 29.5012 38.8073 29.1137 35.9056 29.1137H32.6259C29.7242 29.1137 27.5408 29.5012 26.0947 30.2763C24.6391 31.0513 23.9207 32.1099 23.9207 33.4521C23.9207 34.8131 24.6485 35.8812 26.0947 36.6657C27.5502 37.4502 29.7242 37.8472 32.6259 37.8472H35.9056Z" fill="black"/>
<path d="M68.5429 41.1366C68.5996 41.2122 68.6091 41.2689 68.5618 41.3257C68.5146 41.3824 68.4579 41.4107 68.3728 41.4107H64.2707C64.1384 41.4107 64.0344 41.3446 63.9494 41.2217L60.0647 35.6829H54.9796V41.1744C54.9796 41.3351 54.904 41.4107 54.7433 41.4107H51.5486C51.3879 41.4107 51.3123 41.3351 51.3123 41.1744V25.7964C51.3123 25.6357 51.3879 25.5601 51.5486 25.5601H62.2764C64.2046 25.5601 65.7452 25.9948 66.8794 26.855C68.0136 27.7245 68.5807 28.9627 68.5807 30.579C68.5807 31.8266 68.2027 32.8568 67.4465 33.6886C66.6904 34.5204 65.6129 35.0875 64.2329 35.3805L68.5429 41.1366ZM54.9796 32.5071H62.2291C63.042 32.5071 63.6658 32.337 64.11 32.0062C64.5448 31.6659 64.7622 31.1933 64.7622 30.579C64.7622 30.0024 64.5448 29.5582 64.1195 29.2368C63.6942 28.9154 63.0609 28.7548 62.2291 28.7548H54.9796V32.5071Z" fill="black"/>
<path d="M71.1139 41.4107C70.9532 41.4107 70.8776 41.3351 70.8776 41.1744V25.7964C70.8776 25.6357 70.9532 25.5601 71.1139 25.5601H75.7925C75.9059 25.5601 75.9815 25.6262 76.0288 25.7491L79.3936 33.3011H79.4976L82.9097 25.7491C82.9853 25.6168 83.0798 25.5601 83.2122 25.5601H87.6923C87.853 25.5601 87.9286 25.6357 87.9286 25.7964V41.1744C87.9286 41.3351 87.853 41.4107 87.6923 41.4107H84.4976C84.3369 41.4107 84.2613 41.3351 84.2613 41.1744V30.7491H84.1573L81.3218 37.1669C81.2462 37.3086 81.1611 37.3843 81.0666 37.3843H77.7868C77.6734 37.3843 77.5883 37.3181 77.5316 37.1952L74.6583 30.7585H74.5449V41.1839C74.5449 41.3446 74.4692 41.4202 74.3086 41.4202H71.1139V41.4107Z" fill="black"/>
<path d="M90.8027 1.71289H91.7479C91.8802 1.71289 92.0031 1.73179 92.1165 1.7696C92.2204 1.80741 92.315 1.86412 92.3811 1.93028C92.4378 1.98699 92.4756 2.05316 92.504 2.11932C92.5324 2.19493 92.5513 2.27055 92.5513 2.36506V2.37452C92.5513 2.46903 92.5324 2.5541 92.504 2.62026C92.4756 2.69588 92.4284 2.75259 92.3811 2.8093C92.3244 2.86601 92.2677 2.90382 92.1921 2.94162C92.1165 2.97943 92.0409 2.99833 91.9558 3.01724L92.6363 3.91516H92.3339L91.6911 3.05505H91.6817H91.0579V3.91516H90.8121V1.71289H90.8027ZM91.7289 2.83765C91.814 2.83765 91.8896 2.8282 91.9558 2.8093C92.022 2.7904 92.0881 2.76204 92.1354 2.71478C92.1826 2.67697 92.2299 2.62972 92.2583 2.573C92.2866 2.51629 92.3055 2.45013 92.3055 2.38397V2.37452C92.3055 2.24219 92.2582 2.12877 92.1543 2.05316C92.0598 1.97754 91.918 1.93973 91.7384 1.93973H91.0579V2.83765H91.7289Z" fill="black"/>
<path d="M91.6442 5.02124C90.4343 5.02124 89.4419 4.0288 89.4419 2.81897C89.4419 1.60914 90.4343 0.616699 91.6442 0.616699C92.854 0.616699 93.8464 1.60914 93.8464 2.81897C93.8464 4.0288 92.8634 5.02124 91.6442 5.02124ZM91.6442 0.871898C90.5761 0.871898 89.7065 1.74146 89.7065 2.80952C89.7065 3.87757 90.5761 4.74713 91.6442 4.74713C92.7122 4.74713 93.5818 3.87757 93.5818 2.80952C93.5818 1.74146 92.7122 0.871898 91.6442 0.871898Z" fill="black"/>
</svg>
