<svg width="24" height="24" viewBox="0 0 24 24" fill="none" xmlns="http://www.w3.org/2000/svg">
<path fill-rule="evenodd" clip-rule="evenodd" d="M13.6663 21.9997V14.8492H15.8886L16.333 12.0559H13.6663V10.1006C13.6663 9.31847 13.9441 8.70394 15.1663 8.70394H16.4441V6.13411C15.7219 6.02238 14.9441 5.91064 14.2219 5.91064C11.9441 5.91064 10.333 7.30729 10.333 9.82126V12.0559H7.83301V14.8492H10.333V21.9999C5.61094 21.1618 2 17.0278 2 12.0559C2 6.52514 6.5 2 12 2C17.5 2 22 6.52514 22 12.0559C22 17.0279 18.3889 21.162 13.6667 22L13.6663 21.9997Z" fill="black"/>
</svg>
