<svg width="32" height="32" viewBox="0 0 32 32" fill="none" xmlns="http://www.w3.org/2000/svg">
<rect x="0.5" y="0.5" width="31" height="31" stroke="#7B7B7B"/>
<path d="M18.3541 20.6463C18.4006 20.6927 18.4374 20.7479 18.4626 20.8086C18.4877 20.8693 18.5007 20.9343 18.5007 21C18.5007 21.0657 18.4877 21.1308 18.4626 21.1915C18.4374 21.2522 18.4006 21.3073 18.3541 21.3538C18.3077 21.4002 18.2525 21.4371 18.1918 21.4622C18.1311 21.4874 18.0661 21.5003 18.0004 21.5003C17.9347 21.5003 17.8696 21.4874 17.8089 21.4622C17.7482 21.4371 17.6931 21.4002 17.6466 21.3538L12.6466 16.3538C12.6002 16.3073 12.5633 16.2522 12.5381 16.1915C12.513 16.1308 12.5 16.0657 12.5 16C12.5 15.9343 12.513 15.8693 12.5381 15.8086C12.5633 15.7479 12.6002 15.6927 12.6466 15.6463L17.6466 10.6463C17.7405 10.5525 17.8677 10.4998 18.0004 10.4998C18.1331 10.4998 18.2603 10.5525 18.3541 10.6463C18.448 10.7401 18.5007 10.8674 18.5007 11C18.5007 11.1327 18.448 11.26 18.3541 11.3538L13.7073 16L18.3541 20.6463Z" fill="#7B7B7B"/>
</svg>
