<svg width="32" height="32" viewBox="0 0 32 32" fill="none" xmlns="http://www.w3.org/2000/svg">
<rect x="0.5" y="0.5" width="31" height="31" stroke="black"/>
<path d="M19.354 16.3538L14.354 21.3538C14.3076 21.4002 14.2524 21.4371 14.1917 21.4622C14.131 21.4874 14.066 21.5003 14.0003 21.5003C13.9346 21.5003 13.8695 21.4874 13.8088 21.4622C13.7481 21.4371 13.693 21.4002 13.6465 21.3538C13.6001 21.3073 13.5632 21.2522 13.5381 21.1915C13.5129 21.1308 13.5 21.0657 13.5 21C13.5 20.9343 13.5129 20.8693 13.5381 20.8086C13.5632 20.7479 13.6001 20.6927 13.6465 20.6463L18.2934 16L13.6465 11.3538C13.5527 11.26 13.5 11.1327 13.5 11C13.5 10.8674 13.5527 10.7401 13.6465 10.6463C13.7403 10.5525 13.8676 10.4998 14.0003 10.4998C14.133 10.4998 14.2602 10.5525 14.354 10.6463L19.354 15.6463C19.4005 15.6927 19.4374 15.7479 19.4626 15.8086C19.4877 15.8693 19.5007 15.9343 19.5007 16C19.5007 16.0657 19.4877 16.1308 19.4626 16.1915C19.4374 16.2522 19.4005 16.3073 19.354 16.3538Z" fill="black"/>
</svg>
