<svg width="20" height="20" viewBox="0 0 20 20" fill="none" xmlns="http://www.w3.org/2000/svg">
<path fill-rule="evenodd" clip-rule="evenodd" d="M17.9536 5.53552C17.9611 5.73098 17.9636 5.92636 17.9636 6.12181C17.9636 12.0477 13.8367 18.8889 6.29002 18.8889C3.97181 18.8889 1.81621 18.1426 0 16.8721C0.321047 16.9076 0.647101 16.9343 0.978155 16.9343C2.90027 16.9343 4.67062 16.2145 6.07488 15.0063C4.27952 14.9796 2.76352 13.6736 2.24067 11.8967C2.49167 11.95 2.75016 11.9767 3.0145 11.9767C3.38725 11.9767 3.74915 11.9235 4.09605 11.8169C2.2173 11.4082 0.802206 9.59581 0.802206 7.41912C0.802206 7.39247 0.802206 7.38354 0.802206 7.36577C1.35591 7.69449 1.98965 7.89873 2.6626 7.92538C1.5602 7.1169 0.835543 5.73984 0.835543 4.18507C0.835543 3.3677 1.03734 2.59472 1.39258 1.92838C3.4156 4.64702 6.44013 6.43282 9.84991 6.6194C9.77986 6.29067 9.74399 5.94426 9.74399 5.59777C9.74399 3.11901 11.581 1.11108 13.8475 1.11108C15.0275 1.11108 16.0932 1.65311 16.8412 2.52379C17.7777 2.32833 18.6549 1.95521 19.4488 1.43991C19.1411 2.48828 18.4915 3.36765 17.6426 3.91849C18.4731 3.81188 19.2653 3.57218 20 3.2168C19.4488 4.11413 18.755 4.90472 17.9536 5.53552Z" fill="black"/>
</svg>
